<mxfile host="Electron" agent="Mozilla/5.0 (Windows NT 10.0; Win64; x64) AppleWebKit/537.36 (KHTML, like Gecko) draw.io/24.7.17 Chrome/128.0.6613.36 Electron/32.0.1 Safari/537.36" version="24.7.17">
  <diagram name="PÃ¡gina-1" id="nV4Ub5CrQPU7NlM5xBLT">
    <mxGraphModel dx="1232" dy="1180" grid="1" gridSize="10" guides="1" tooltips="1" connect="1" arrows="1" fold="1" page="1" pageScale="1" pageWidth="827" pageHeight="1169" math="0" shadow="0">
      <root>
        <mxCell id="0" />
        <mxCell id="1" parent="0" />
        <mxCell id="k6M-2lPNlJmt8OqdKw3G-25" value="" style="ellipse;whiteSpace=wrap;html=1;" parent="1" vertex="1">
          <mxGeometry x="647" y="145" width="73" height="50" as="geometry" />
        </mxCell>
        <mxCell id="k6M-2lPNlJmt8OqdKw3G-8" value="" style="edgeStyle=orthogonalEdgeStyle;rounded=0;orthogonalLoop=1;jettySize=auto;html=1;" parent="1" source="k6M-2lPNlJmt8OqdKw3G-1" target="k6M-2lPNlJmt8OqdKw3G-7" edge="1">
          <mxGeometry relative="1" as="geometry" />
        </mxCell>
        <mxCell id="k6M-2lPNlJmt8OqdKw3G-1" value="DANIEL" style="rounded=0;whiteSpace=wrap;html=1;" parent="1" vertex="1">
          <mxGeometry x="10" y="88" width="80" height="40" as="geometry" />
        </mxCell>
        <mxCell id="k6M-2lPNlJmt8OqdKw3G-10" value="" style="edgeStyle=orthogonalEdgeStyle;rounded=0;orthogonalLoop=1;jettySize=auto;html=1;" parent="1" source="k6M-2lPNlJmt8OqdKw3G-2" target="k6M-2lPNlJmt8OqdKw3G-9" edge="1">
          <mxGeometry relative="1" as="geometry" />
        </mxCell>
        <mxCell id="k6M-2lPNlJmt8OqdKw3G-12" value="" style="edgeStyle=orthogonalEdgeStyle;rounded=0;orthogonalLoop=1;jettySize=auto;html=1;" parent="1" source="k6M-2lPNlJmt8OqdKw3G-2" target="k6M-2lPNlJmt8OqdKw3G-11" edge="1">
          <mxGeometry relative="1" as="geometry" />
        </mxCell>
        <mxCell id="k6M-2lPNlJmt8OqdKw3G-14" value="" style="edgeStyle=orthogonalEdgeStyle;rounded=0;orthogonalLoop=1;jettySize=auto;html=1;" parent="1" source="k6M-2lPNlJmt8OqdKw3G-2" target="k6M-2lPNlJmt8OqdKw3G-13" edge="1">
          <mxGeometry relative="1" as="geometry" />
        </mxCell>
        <mxCell id="k6M-2lPNlJmt8OqdKw3G-2" value="LIBROS DE PESCA" style="rounded=0;whiteSpace=wrap;html=1;" parent="1" vertex="1">
          <mxGeometry x="250" y="88" width="80" height="40" as="geometry" />
        </mxCell>
        <mxCell id="k6M-2lPNlJmt8OqdKw3G-3" value="Escribe" style="rhombus;whiteSpace=wrap;html=1;" parent="1" vertex="1">
          <mxGeometry x="130" y="88" width="80" height="40" as="geometry" />
        </mxCell>
        <mxCell id="k6M-2lPNlJmt8OqdKw3G-4" value="" style="endArrow=none;html=1;rounded=0;exitX=1;exitY=0.5;exitDx=0;exitDy=0;" parent="1" source="k6M-2lPNlJmt8OqdKw3G-1" edge="1">
          <mxGeometry width="50" height="50" relative="1" as="geometry">
            <mxPoint x="320" y="258" as="sourcePoint" />
            <mxPoint x="130" y="108" as="targetPoint" />
          </mxGeometry>
        </mxCell>
        <mxCell id="k6M-2lPNlJmt8OqdKw3G-5" value="" style="endArrow=none;html=1;rounded=0;exitX=1;exitY=0.5;exitDx=0;exitDy=0;entryX=0;entryY=0.5;entryDx=0;entryDy=0;" parent="1" source="k6M-2lPNlJmt8OqdKw3G-3" target="k6M-2lPNlJmt8OqdKw3G-2" edge="1">
          <mxGeometry width="50" height="50" relative="1" as="geometry">
            <mxPoint x="210" y="107.5" as="sourcePoint" />
            <mxPoint x="270" y="148" as="targetPoint" />
          </mxGeometry>
        </mxCell>
        <mxCell id="k6M-2lPNlJmt8OqdKw3G-6" value="(1:N)" style="text;html=1;align=center;verticalAlign=middle;resizable=0;points=[];autosize=1;strokeColor=none;fillColor=none;" parent="1" vertex="1">
          <mxGeometry x="145" y="58" width="50" height="30" as="geometry" />
        </mxCell>
        <mxCell id="k6M-2lPNlJmt8OqdKw3G-7" value="Edad" style="ellipse;whiteSpace=wrap;html=1;" parent="1" vertex="1">
          <mxGeometry x="20" y="168" width="60" height="40" as="geometry" />
        </mxCell>
        <mxCell id="k6M-2lPNlJmt8OqdKw3G-9" value="Titulo" style="ellipse;whiteSpace=wrap;html=1;" parent="1" vertex="1">
          <mxGeometry x="260" y="8" width="60" height="40" as="geometry" />
        </mxCell>
        <mxCell id="k6M-2lPNlJmt8OqdKw3G-11" value="Fecha publicacion" style="ellipse;whiteSpace=wrap;html=1;" parent="1" vertex="1">
          <mxGeometry x="370" y="88" width="120" height="40" as="geometry" />
        </mxCell>
        <mxCell id="k6M-2lPNlJmt8OqdKw3G-13" value="Coste" style="ellipse;whiteSpace=wrap;html=1;" parent="1" vertex="1">
          <mxGeometry x="260" y="168" width="60" height="40" as="geometry" />
        </mxCell>
        <mxCell id="k6M-2lPNlJmt8OqdKw3G-32" value="" style="edgeStyle=orthogonalEdgeStyle;rounded=0;orthogonalLoop=1;jettySize=auto;html=1;" parent="1" source="k6M-2lPNlJmt8OqdKw3G-15" target="k6M-2lPNlJmt8OqdKw3G-21" edge="1">
          <mxGeometry relative="1" as="geometry" />
        </mxCell>
        <mxCell id="k6M-2lPNlJmt8OqdKw3G-15" value="AUTOR" style="rounded=0;whiteSpace=wrap;html=1;" parent="1" vertex="1">
          <mxGeometry x="433" y="230" width="80" height="40" as="geometry" />
        </mxCell>
        <mxCell id="k6M-2lPNlJmt8OqdKw3G-23" value="" style="edgeStyle=orthogonalEdgeStyle;rounded=0;orthogonalLoop=1;jettySize=auto;html=1;" parent="1" source="k6M-2lPNlJmt8OqdKw3G-16" target="k6M-2lPNlJmt8OqdKw3G-22" edge="1">
          <mxGeometry relative="1" as="geometry" />
        </mxCell>
        <mxCell id="k6M-2lPNlJmt8OqdKw3G-31" value="" style="edgeStyle=orthogonalEdgeStyle;rounded=0;orthogonalLoop=1;jettySize=auto;html=1;" parent="1" source="k6M-2lPNlJmt8OqdKw3G-16" target="k6M-2lPNlJmt8OqdKw3G-30" edge="1">
          <mxGeometry relative="1" as="geometry" />
        </mxCell>
        <mxCell id="k6M-2lPNlJmt8OqdKw3G-34" value="" style="edgeStyle=orthogonalEdgeStyle;rounded=0;orthogonalLoop=1;jettySize=auto;html=1;" parent="1" source="k6M-2lPNlJmt8OqdKw3G-16" target="k6M-2lPNlJmt8OqdKw3G-33" edge="1">
          <mxGeometry relative="1" as="geometry" />
        </mxCell>
        <mxCell id="k6M-2lPNlJmt8OqdKw3G-16" value="LIBROS DE PESCA" style="rounded=0;whiteSpace=wrap;html=1;" parent="1" vertex="1">
          <mxGeometry x="643" y="230" width="80" height="40" as="geometry" />
        </mxCell>
        <mxCell id="k6M-2lPNlJmt8OqdKw3G-17" value="Escribe" style="rhombus;whiteSpace=wrap;html=1;" parent="1" vertex="1">
          <mxGeometry x="537" y="230" width="80" height="40" as="geometry" />
        </mxCell>
        <mxCell id="k6M-2lPNlJmt8OqdKw3G-18" value="" style="endArrow=none;html=1;rounded=0;exitX=1;exitY=0.5;exitDx=0;exitDy=0;entryX=0;entryY=0.5;entryDx=0;entryDy=0;" parent="1" source="k6M-2lPNlJmt8OqdKw3G-15" target="k6M-2lPNlJmt8OqdKw3G-17" edge="1">
          <mxGeometry width="50" height="50" relative="1" as="geometry">
            <mxPoint x="427" y="-90" as="sourcePoint" />
            <mxPoint x="467" y="-90" as="targetPoint" />
          </mxGeometry>
        </mxCell>
        <mxCell id="k6M-2lPNlJmt8OqdKw3G-19" value="" style="endArrow=none;html=1;rounded=0;exitX=1;exitY=0.5;exitDx=0;exitDy=0;entryX=0;entryY=0.5;entryDx=0;entryDy=0;" parent="1" source="k6M-2lPNlJmt8OqdKw3G-17" target="k6M-2lPNlJmt8OqdKw3G-16" edge="1">
          <mxGeometry width="50" height="50" relative="1" as="geometry">
            <mxPoint x="647" y="320" as="sourcePoint" />
            <mxPoint x="821" y="320" as="targetPoint" />
          </mxGeometry>
        </mxCell>
        <mxCell id="k6M-2lPNlJmt8OqdKw3G-20" value="(N:M)" style="text;html=1;align=center;verticalAlign=middle;resizable=0;points=[];autosize=1;strokeColor=none;fillColor=none;" parent="1" vertex="1">
          <mxGeometry x="552" y="200" width="50" height="30" as="geometry" />
        </mxCell>
        <mxCell id="k6M-2lPNlJmt8OqdKw3G-21" value="&lt;u&gt;ID&lt;/u&gt;" style="ellipse;whiteSpace=wrap;html=1;" parent="1" vertex="1">
          <mxGeometry x="443" y="310" width="60" height="40" as="geometry" />
        </mxCell>
        <mxCell id="k6M-2lPNlJmt8OqdKw3G-22" value="Formato" style="ellipse;whiteSpace=wrap;html=1;" parent="1" vertex="1">
          <mxGeometry x="653" y="150" width="60" height="40" as="geometry" />
        </mxCell>
        <mxCell id="k6M-2lPNlJmt8OqdKw3G-26" value="Papel" style="ellipse;whiteSpace=wrap;html=1;" parent="1" vertex="1">
          <mxGeometry x="613" y="70" width="60" height="40" as="geometry" />
        </mxCell>
        <mxCell id="k6M-2lPNlJmt8OqdKw3G-27" value="Digital" style="ellipse;whiteSpace=wrap;html=1;" parent="1" vertex="1">
          <mxGeometry x="693" y="70" width="60" height="40" as="geometry" />
        </mxCell>
        <mxCell id="k6M-2lPNlJmt8OqdKw3G-28" value="" style="endArrow=classic;html=1;rounded=0;entryX=0.5;entryY=1;entryDx=0;entryDy=0;exitX=0.5;exitY=0;exitDx=0;exitDy=0;" parent="1" source="k6M-2lPNlJmt8OqdKw3G-25" target="k6M-2lPNlJmt8OqdKw3G-26" edge="1">
          <mxGeometry width="50" height="50" relative="1" as="geometry">
            <mxPoint x="683" y="130" as="sourcePoint" />
            <mxPoint x="443" y="230" as="targetPoint" />
          </mxGeometry>
        </mxCell>
        <mxCell id="k6M-2lPNlJmt8OqdKw3G-29" value="" style="endArrow=classic;html=1;rounded=0;entryX=0.5;entryY=1;entryDx=0;entryDy=0;exitX=0.5;exitY=0;exitDx=0;exitDy=0;" parent="1" source="k6M-2lPNlJmt8OqdKw3G-25" target="k6M-2lPNlJmt8OqdKw3G-27" edge="1">
          <mxGeometry width="50" height="50" relative="1" as="geometry">
            <mxPoint x="743" y="150" as="sourcePoint" />
            <mxPoint x="623" y="120" as="targetPoint" />
          </mxGeometry>
        </mxCell>
        <mxCell id="k6M-2lPNlJmt8OqdKw3G-30" value="Club" style="ellipse;whiteSpace=wrap;html=1;" parent="1" vertex="1">
          <mxGeometry x="653" y="310" width="60" height="40" as="geometry" />
        </mxCell>
        <mxCell id="k6M-2lPNlJmt8OqdKw3G-33" value="Titulo" style="ellipse;whiteSpace=wrap;html=1;" parent="1" vertex="1">
          <mxGeometry x="763" y="230" width="60" height="40" as="geometry" />
        </mxCell>
        <mxCell id="k6M-2lPNlJmt8OqdKw3G-35" value="" style="ellipse;whiteSpace=wrap;html=1;" parent="1" vertex="1">
          <mxGeometry x="327" y="455" width="73" height="50" as="geometry" />
        </mxCell>
        <mxCell id="k6M-2lPNlJmt8OqdKw3G-36" value="" style="edgeStyle=orthogonalEdgeStyle;rounded=0;orthogonalLoop=1;jettySize=auto;html=1;" parent="1" source="k6M-2lPNlJmt8OqdKw3G-37" target="k6M-2lPNlJmt8OqdKw3G-46" edge="1">
          <mxGeometry relative="1" as="geometry" />
        </mxCell>
        <mxCell id="emalL916oUjSYn9RmOkQ-10" value="" style="edgeStyle=orthogonalEdgeStyle;rounded=0;orthogonalLoop=1;jettySize=auto;html=1;" edge="1" parent="1" source="k6M-2lPNlJmt8OqdKw3G-37" target="emalL916oUjSYn9RmOkQ-9">
          <mxGeometry relative="1" as="geometry" />
        </mxCell>
        <mxCell id="k6M-2lPNlJmt8OqdKw3G-37" value="AUTOR" style="rounded=0;whiteSpace=wrap;html=1;" parent="1" vertex="1">
          <mxGeometry x="113" y="540" width="80" height="40" as="geometry" />
        </mxCell>
        <mxCell id="k6M-2lPNlJmt8OqdKw3G-38" value="" style="edgeStyle=orthogonalEdgeStyle;rounded=0;orthogonalLoop=1;jettySize=auto;html=1;" parent="1" source="k6M-2lPNlJmt8OqdKw3G-41" target="k6M-2lPNlJmt8OqdKw3G-47" edge="1">
          <mxGeometry relative="1" as="geometry" />
        </mxCell>
        <mxCell id="k6M-2lPNlJmt8OqdKw3G-39" value="" style="edgeStyle=orthogonalEdgeStyle;rounded=0;orthogonalLoop=1;jettySize=auto;html=1;" parent="1" source="k6M-2lPNlJmt8OqdKw3G-41" target="k6M-2lPNlJmt8OqdKw3G-52" edge="1">
          <mxGeometry relative="1" as="geometry" />
        </mxCell>
        <mxCell id="k6M-2lPNlJmt8OqdKw3G-40" value="" style="edgeStyle=orthogonalEdgeStyle;rounded=0;orthogonalLoop=1;jettySize=auto;html=1;" parent="1" source="k6M-2lPNlJmt8OqdKw3G-41" target="k6M-2lPNlJmt8OqdKw3G-53" edge="1">
          <mxGeometry relative="1" as="geometry" />
        </mxCell>
        <mxCell id="k6M-2lPNlJmt8OqdKw3G-41" value="LIBROS DE PESCA" style="rounded=0;whiteSpace=wrap;html=1;" parent="1" vertex="1">
          <mxGeometry x="323" y="540" width="80" height="40" as="geometry" />
        </mxCell>
        <mxCell id="k6M-2lPNlJmt8OqdKw3G-42" value="Escribe" style="rhombus;whiteSpace=wrap;html=1;" parent="1" vertex="1">
          <mxGeometry x="217" y="540" width="80" height="40" as="geometry" />
        </mxCell>
        <mxCell id="k6M-2lPNlJmt8OqdKw3G-43" value="" style="endArrow=none;html=1;rounded=0;exitX=1;exitY=0.5;exitDx=0;exitDy=0;entryX=0;entryY=0.5;entryDx=0;entryDy=0;" parent="1" source="k6M-2lPNlJmt8OqdKw3G-37" target="k6M-2lPNlJmt8OqdKw3G-42" edge="1">
          <mxGeometry width="50" height="50" relative="1" as="geometry">
            <mxPoint x="107" y="220" as="sourcePoint" />
            <mxPoint x="147" y="220" as="targetPoint" />
          </mxGeometry>
        </mxCell>
        <mxCell id="k6M-2lPNlJmt8OqdKw3G-44" value="" style="endArrow=none;html=1;rounded=0;exitX=1;exitY=0.5;exitDx=0;exitDy=0;entryX=0;entryY=0.5;entryDx=0;entryDy=0;" parent="1" source="k6M-2lPNlJmt8OqdKw3G-42" target="k6M-2lPNlJmt8OqdKw3G-41" edge="1">
          <mxGeometry width="50" height="50" relative="1" as="geometry">
            <mxPoint x="327" y="630" as="sourcePoint" />
            <mxPoint x="501" y="630" as="targetPoint" />
          </mxGeometry>
        </mxCell>
        <mxCell id="k6M-2lPNlJmt8OqdKw3G-45" value="(N:M)" style="text;html=1;align=center;verticalAlign=middle;resizable=0;points=[];autosize=1;strokeColor=none;fillColor=none;" parent="1" vertex="1">
          <mxGeometry x="232" y="500" width="50" height="30" as="geometry" />
        </mxCell>
        <mxCell id="k6M-2lPNlJmt8OqdKw3G-46" value="&lt;u&gt;ID&lt;/u&gt;" style="ellipse;whiteSpace=wrap;html=1;" parent="1" vertex="1">
          <mxGeometry x="123" y="620" width="60" height="40" as="geometry" />
        </mxCell>
        <mxCell id="k6M-2lPNlJmt8OqdKw3G-47" value="Formato" style="ellipse;whiteSpace=wrap;html=1;" parent="1" vertex="1">
          <mxGeometry x="333" y="460" width="60" height="40" as="geometry" />
        </mxCell>
        <mxCell id="k6M-2lPNlJmt8OqdKw3G-48" value="Papel" style="ellipse;whiteSpace=wrap;html=1;" parent="1" vertex="1">
          <mxGeometry x="293" y="380" width="60" height="40" as="geometry" />
        </mxCell>
        <mxCell id="k6M-2lPNlJmt8OqdKw3G-49" value="Digital" style="ellipse;whiteSpace=wrap;html=1;" parent="1" vertex="1">
          <mxGeometry x="373" y="380" width="60" height="40" as="geometry" />
        </mxCell>
        <mxCell id="k6M-2lPNlJmt8OqdKw3G-50" value="" style="endArrow=classic;html=1;rounded=0;entryX=0.5;entryY=1;entryDx=0;entryDy=0;exitX=0.5;exitY=0;exitDx=0;exitDy=0;" parent="1" source="k6M-2lPNlJmt8OqdKw3G-35" target="k6M-2lPNlJmt8OqdKw3G-48" edge="1">
          <mxGeometry width="50" height="50" relative="1" as="geometry">
            <mxPoint x="363" y="440" as="sourcePoint" />
            <mxPoint x="123" y="540" as="targetPoint" />
          </mxGeometry>
        </mxCell>
        <mxCell id="k6M-2lPNlJmt8OqdKw3G-51" value="" style="endArrow=classic;html=1;rounded=0;entryX=0.5;entryY=1;entryDx=0;entryDy=0;exitX=0.5;exitY=0;exitDx=0;exitDy=0;" parent="1" source="k6M-2lPNlJmt8OqdKw3G-35" target="k6M-2lPNlJmt8OqdKw3G-49" edge="1">
          <mxGeometry width="50" height="50" relative="1" as="geometry">
            <mxPoint x="423" y="460" as="sourcePoint" />
            <mxPoint x="303" y="430" as="targetPoint" />
          </mxGeometry>
        </mxCell>
        <mxCell id="k6M-2lPNlJmt8OqdKw3G-52" value="Club" style="ellipse;whiteSpace=wrap;html=1;" parent="1" vertex="1">
          <mxGeometry x="333" y="620" width="60" height="40" as="geometry" />
        </mxCell>
        <mxCell id="k6M-2lPNlJmt8OqdKw3G-53" value="Titulo" style="ellipse;whiteSpace=wrap;html=1;" parent="1" vertex="1">
          <mxGeometry x="443" y="540" width="60" height="40" as="geometry" />
        </mxCell>
        <mxCell id="k6M-2lPNlJmt8OqdKw3G-55" value="" style="rounded=0;orthogonalLoop=1;jettySize=auto;html=1;exitX=1;exitY=1;exitDx=0;exitDy=0;entryX=0.5;entryY=0;entryDx=0;entryDy=0;" parent="1" source="k6M-2lPNlJmt8OqdKw3G-41" target="k6M-2lPNlJmt8OqdKw3G-57" edge="1">
          <mxGeometry relative="1" as="geometry">
            <mxPoint x="413" y="570" as="sourcePoint" />
            <mxPoint x="458" y="635" as="targetPoint" />
          </mxGeometry>
        </mxCell>
        <mxCell id="k6M-2lPNlJmt8OqdKw3G-57" value="Tematica" style="ellipse;whiteSpace=wrap;html=1;" parent="1" vertex="1">
          <mxGeometry x="443" y="635" width="60" height="40" as="geometry" />
        </mxCell>
        <mxCell id="emalL916oUjSYn9RmOkQ-1" value="Duracion" style="ellipse;whiteSpace=wrap;html=1;" vertex="1" parent="1">
          <mxGeometry x="193" y="685" width="67" height="40" as="geometry" />
        </mxCell>
        <mxCell id="emalL916oUjSYn9RmOkQ-2" value="Estado" style="ellipse;whiteSpace=wrap;html=1;" vertex="1" parent="1">
          <mxGeometry x="266" y="685" width="67" height="40" as="geometry" />
        </mxCell>
        <mxCell id="emalL916oUjSYn9RmOkQ-3" value="" style="endArrow=none;html=1;rounded=0;exitX=0.5;exitY=0;exitDx=0;exitDy=0;entryX=0.5;entryY=1;entryDx=0;entryDy=0;" edge="1" parent="1" source="emalL916oUjSYn9RmOkQ-1" target="k6M-2lPNlJmt8OqdKw3G-42">
          <mxGeometry width="50" height="50" relative="1" as="geometry">
            <mxPoint x="307" y="570" as="sourcePoint" />
            <mxPoint x="333" y="570" as="targetPoint" />
          </mxGeometry>
        </mxCell>
        <mxCell id="emalL916oUjSYn9RmOkQ-4" value="" style="endArrow=none;html=1;rounded=0;exitX=0.5;exitY=0;exitDx=0;exitDy=0;entryX=0.5;entryY=1;entryDx=0;entryDy=0;" edge="1" parent="1" source="emalL916oUjSYn9RmOkQ-2" target="k6M-2lPNlJmt8OqdKw3G-42">
          <mxGeometry width="50" height="50" relative="1" as="geometry">
            <mxPoint x="317" y="580" as="sourcePoint" />
            <mxPoint x="343" y="580" as="targetPoint" />
          </mxGeometry>
        </mxCell>
        <mxCell id="emalL916oUjSYn9RmOkQ-9" value="Nombre" style="ellipse;whiteSpace=wrap;html=1;" vertex="1" parent="1">
          <mxGeometry x="1" y="540" width="67" height="40" as="geometry" />
        </mxCell>
      </root>
    </mxGraphModel>
  </diagram>
</mxfile>
